<svg width="32" height="32" viewBox="0 0 32 32" fill="none" xmlns="http://www.w3.org/2000/svg">
<path d="M15.2239 3.24931C15.5562 2.22657 17.0031 2.22657 17.3354 3.24931L19.5197 9.97177C19.6683 10.4292 20.0945 10.7388 20.5754 10.7388L27.6439 10.7388C28.7192 10.7388 29.1663 12.1149 28.2964 12.747L22.5779 16.9017C22.1888 17.1844 22.026 17.6855 22.1746 18.1428L24.3589 24.8653C24.6912 25.888 23.5206 26.7385 22.6506 26.1064L16.9322 21.9517C16.5431 21.669 16.0162 21.669 15.6272 21.9517L9.9087 26.1064C9.0387 26.7385 7.86812 25.888 8.20043 24.8653L10.3847 18.1428C10.5333 17.6855 10.3705 17.1844 9.98142 16.9017L4.26296 12.747C3.39296 12.1149 3.84008 10.7388 4.91546 10.7388L11.9839 10.7388C12.4648 10.7388 12.891 10.4292 13.0396 9.97177L15.2239 3.24931Z" fill="#5D5DFF"/>
</svg>
