<svg width="50" height="51" viewBox="0 0 50 51" fill="none" xmlns="http://www.w3.org/2000/svg">
<path d="M49.8485 24.4494C49.0005 9.94975 35.8563 -1.225 20.7168 1.27495C10.2912 2.99991 1.93584 11.4747 0.314643 21.9244C-0.633134 27.9743 0.613991 33.6992 3.33261 38.4241L1.1128 46.6989C0.613965 48.5739 2.33488 50.2738 4.18055 49.7488L12.3115 47.4989C16.0028 49.6739 20.3177 50.9238 24.9319 50.9238C38.9989 50.9238 50.6716 38.4991 49.8485 24.4494ZM37.1283 35.2241C36.9038 35.6741 36.6295 36.0991 36.2803 36.4991C35.6568 37.1741 34.9833 37.6741 34.2351 37.9741C33.4869 38.2991 32.6638 38.4491 31.7908 38.4491C30.5188 38.4491 29.147 38.1493 27.7254 37.5243C26.2788 36.8994 24.8571 36.0741 23.4354 35.0491C21.9888 33.9992 20.642 32.8242 19.345 31.5492C18.0481 30.2492 16.9007 28.8743 15.8531 27.4493C14.8305 26.0243 14.0075 24.5994 13.4089 23.1744C12.8103 21.7494 12.5111 20.3746 12.5111 19.0746C12.5111 18.2246 12.6607 17.3996 12.96 16.6496C13.2593 15.8746 13.7332 15.1747 14.4067 14.5497C15.2048 13.7497 16.0777 13.3747 17.0005 13.3747C17.3497 13.3747 17.6988 13.4497 18.0231 13.5997C18.3473 13.7497 18.6466 13.9747 18.8711 14.2997L21.7644 18.3996C21.9888 18.7245 22.1634 18.9995 22.2632 19.2745C22.3879 19.5495 22.4378 19.7995 22.4378 20.0495C22.4378 20.3495 22.338 20.6496 22.1634 20.9494C21.9888 21.2494 21.7644 21.5494 21.4651 21.8494L20.5173 22.8494C20.3676 22.9994 20.3177 23.1494 20.3177 23.3494C20.3177 23.4494 20.3427 23.5494 20.3676 23.6494C20.4175 23.7494 20.4425 23.8244 20.4674 23.8994C20.6919 24.3244 21.0909 24.8493 21.6396 25.4993C22.2133 26.1493 22.8119 26.8243 23.4604 27.4743C24.1338 28.1493 24.7823 28.7493 25.4557 29.3243C26.1042 29.8742 26.6529 30.2492 27.0769 30.4742C27.1517 30.4992 27.2265 30.5492 27.3014 30.5742C27.4011 30.6242 27.5009 30.6242 27.6256 30.6242C27.8501 30.6242 27.9997 30.5492 28.1494 30.3992L29.0972 29.4493C29.4214 29.1243 29.7207 28.8993 29.995 28.7493C30.2943 28.5743 30.5687 28.4743 30.8929 28.4743C31.1424 28.4743 31.3918 28.5243 31.6661 28.6493C31.9405 28.7743 32.2398 28.9243 32.5391 29.1493L36.6794 32.0992C37.0036 32.3242 37.2281 32.5992 37.3777 32.8992C37.5024 33.2242 37.5773 33.5242 37.5773 33.8742C37.4276 34.2992 37.3278 34.7742 37.1283 35.2241Z" fill="white"/>
</svg>
